<svg width="102" height="36" viewBox="0 0 102 36" fill="none" xmlns="http://www.w3.org/2000/svg">
<path fill-rule="evenodd" clip-rule="evenodd" d="M99.5684 4.8325C99.0032 4.71023 98.1136 4.61643 97.5169 4.61587C94.6328 4.61386 92.6407 4.39788 90.5952 3.86488C89.2722 3.51996 88.2194 3.35516 87.2631 3.34351L86.5426 3.33435L86.1941 2.87241C85.2162 1.57562 83.9646 1.72485 82.606 3.29997C81.2401 4.88291 80.9204 5.72693 81.3573 6.59327L81.5902 7.05473L80.7244 8.06202C79.8117 9.12417 78.8553 10.0754 78.6772 10.0979C78.315 10.1441 79.8798 6.80661 81.0879 4.95656C82.1922 3.2655 82.2761 2.55528 81.464 1.76829C80.3474 0.686609 79.5661 1.11227 75.9555 4.77018C75.0693 5.66773 73.046 7.43197 71.5428 8.61773C70.8166 9.1907 69.3549 10.4967 67.621 12.1226C66.9345 12.7661 66.3132 13.318 66.2403 13.3489C66.0943 13.4108 66.1024 12.2329 66.2665 9.6656C66.484 6.26664 65.6492 4.44817 63.9376 4.59115C63.0329 4.66681 63.0535 4.64758 60.6615 7.6482C59.0225 9.70464 58.505 10.3126 58.4961 10.1942C58.4895 10.1086 58.5457 9.06043 58.6212 7.86447C58.826 4.62595 58.8008 4.34663 58.2493 3.75192C57.3454 2.77827 56.119 3.18902 52.6621 5.62413C52.2762 5.89582 51.4541 6.45997 50.8345 6.87774L49.7082 7.63761L49.1074 7.16046C46.9304 5.43194 44.7189 5.99591 42.5924 8.82179C41.2708 10.5786 41.0829 11.2241 41.5623 12.3631L41.81 12.9513L41.2178 13.794C40.8922 14.2576 40.0875 15.4454 39.4291 16.4336C37.4494 19.4061 34.5544 23.0833 34.3333 22.9068C34.216 22.8131 33.965 20.1783 33.8986 18.3484C33.7084 13.0791 33.3454 11.6872 31.8541 10.5042C29.9716 9.01139 27.4139 11.0327 24.8643 16.028C24.6229 16.5012 24.4057 16.8902 24.3809 16.893C24.2627 16.9062 24.1924 8.54936 24.2873 5.79669C24.344 4.15118 24.2079 3.79267 23.4922 3.70185C22.5877 3.58725 22.3831 4.11551 21.8878 7.84875C21.4481 11.1579 21.3327 13.0058 21.3254 16.8533C21.3121 23.8613 21.2585 25.3577 21.0207 25.3236C20.7784 25.2892 17.4091 24.9973 15.3117 24.8289C12.0719 24.5692 8.2778 24.0042 7.93494 23.7304C7.7273 23.5646 7.75307 23.5132 8.76724 22.0855C13.7093 15.128 14.7562 13.5574 15.6112 11.8216C17.9349 7.10398 17.7287 4.26306 14.8989 1.99961C11.0099 -1.11126 6.21352 0.970571 2.27116 7.48063C0.191262 10.9152 -0.0281628 11.8346 1.17505 12.0739C1.68151 12.175 1.81454 12.0498 3.32695 10.0481C7.55248 4.45634 10.36 2.78983 12.6998 4.48408C14.422 5.73135 14.3544 7.24591 12.4126 10.9072C11.7133 12.2258 6.86861 19.3755 6.65826 19.3991C6.50727 19.416 6.47671 16.8612 6.60273 14.7431C6.74068 12.432 6.65439 12.1018 5.87308 11.946C4.92588 11.7574 4.58718 12.8465 4.19422 17.3459C3.76157 22.2984 4.30089 32.519 5.08381 34.2106C5.77163 35.6965 7.38607 35.8769 7.97143 34.5334C8.1539 34.115 8.13455 33.8902 7.55119 29.5936C7.36645 28.2333 7.23622 27.0939 7.26181 27.0619C7.28714 27.0302 7.63864 27.0815 8.04256 27.1764C9.46974 27.5111 13.7829 28.0162 17.1 28.237C18.048 28.3003 19.3049 28.4093 19.8929 28.48C21.5996 28.6847 22.9701 28.3912 23.8498 27.6327C24.1329 27.3886 25.1932 24.6485 26.0253 22.0117C26.9185 19.1807 27.5554 17.699 28.5728 16.0812C29.1011 15.2416 30.0818 13.9314 30.1913 13.9191C30.3979 13.8963 30.501 14.9573 30.655 18.6896C30.8516 23.4461 31.2631 25.0232 32.5833 26.0774C34.4745 27.5876 36.471 26.2617 40.2207 21.0056C40.8612 20.1082 41.4077 19.3712 41.436 19.368C41.4637 19.3649 41.6067 19.6675 41.7538 20.0406C42.7701 22.6227 44.6937 24.0785 46.4945 23.6285C49.9655 22.7615 53.2354 15.0512 51.9433 10.7805C51.8235 10.3852 51.807 10.1706 51.8925 10.1134C51.9614 10.0672 52.7265 9.54151 53.5925 8.94529C54.4585 8.34908 55.2081 7.85665 55.2591 7.85123C55.717 7.79965 54.7655 14.8882 54.0721 16.6944C53.4789 18.2389 53.5157 18.7993 54.2505 19.4018C55.6092 20.5162 56.5477 19.7339 59.51 15.0162C61.3541 12.0787 61.7853 11.4344 62.3576 10.7584L62.951 10.0574L62.8859 12.1076C62.7649 15.9247 63.1449 17.0746 64.6642 17.4912C65.9507 17.8437 66.711 17.406 69.8205 14.5235C72.3966 12.1354 75.1163 9.79158 75.2172 9.87218C75.2387 9.88933 75.2179 10.1073 75.1708 10.3562C74.7368 12.6628 76.5992 14.3673 78.8209 13.6966C80.4276 13.2111 81.6952 12.085 84.3247 8.80601L86.0249 6.68554L86.4826 6.62551C87.2191 6.52932 88.3241 6.66814 89.9169 7.05694C93.2007 7.85826 95.3949 7.97955 98.0272 7.50441C101.238 6.92509 102.126 5.38573 99.5684 4.8325ZM46.2514 9.83142C45.7578 10.119 45.584 10.1402 45.8893 9.87548C46.1432 9.65534 46.604 9.45231 46.6153 9.55579C46.6192 9.58832 46.4551 9.71233 46.2514 9.83142ZM48.9857 13.3473C48.9248 15.5121 47.1468 19.595 45.9708 20.2705C45.4384 20.5764 44.6373 18.9538 44.4372 17.1652C44.1966 15.0088 44.517 14.1863 45.7845 13.7071C46.3351 13.4992 47.8187 12.7072 48.7556 12.1214C48.955 11.9967 49.015 12.3164 48.9857 13.3473Z" fill="#64FFDA"/>
</svg>
